<svg version="1.1" viewBox="0.0 0.0 1440.0 1440.0" fill="none" stroke="none" stroke-linecap="square"
    stroke-miterlimit="10" xmlns:xlink="http://www.w3.org/1999/xlink"
    xmlns="http://www.w3.org/2000/svg">
    <clipPath id="p.0">
        <path d="m0 0l1440.0 0l0 1440.0l-1440.0 0l0 -1440.0z" clip-rule="nonzero" />
    </clipPath>
    <g clip-path="url(#p.0)">
        <path fill="#1c4587"
            d="m0.010498688 720.0079l0 0c0 -397.64502 322.35498 -720.0 720.0 -720.0l0 0l0 0c190.95587 0 374.0907 75.856926 509.11694 210.88312c135.02612 135.02618 210.88306 318.161 210.88306 509.11688l0 0l0 0c0 397.64508 -322.35498 720.00006 -720.0 720.00006l0 0l0 0c-397.64502 0 -720.0 -322.35498 -720.0 -720.00006z"
            fill-rule="evenodd" />
        <path fill="#000000" fill-opacity="0.0"
            d="m720.0093 295.8696l0 0c101.09357 0 183.04614 80.18503 183.04614 179.09824l0 0c0 47.499817 -19.285156 93.05414 -53.612976 126.6416c-34.32782 33.587463 -80.88635 52.456665 -129.43317 52.456665l0 0c-101.09363 0 -183.0462 -80.185 -183.0462 -179.09827l0 0c0 -98.91321 81.952576 -179.09824 183.0462 -179.09824z"
            fill-rule="evenodd" />
        <path stroke="#ffffff" stroke-width="12.0" stroke-linejoin="round" stroke-linecap="butt"
            d="m720.0093 295.8696l0 0c101.09357 0 183.04614 80.18503 183.04614 179.09824l0 0c0 47.499817 -19.285156 93.05414 -53.612976 126.6416c-34.32782 33.587463 -80.88635 52.456665 -129.43317 52.456665l0 0c-101.09363 0 -183.0462 -80.185 -183.0462 -179.09827l0 0c0 -98.91321 81.952576 -179.09824 183.0462 -179.09824z"
            fill-rule="evenodd" />
        <path fill="#000000" fill-opacity="0.0"
            d="m720.0009 191.63087l0 0c221.4057 0 400.89044 175.61366 400.89044 392.24414l0 0c0 104.0296 -42.236572 203.7984 -117.41809 277.35846c-75.18152 73.56006 -177.1496 114.88568 -283.47235 114.88568l0 0c-221.40567 0 -400.89044 -175.61371 -400.89044 -392.24414l0 0c0 -216.63046 179.48477 -392.24414 400.89044 -392.24414z"
            fill-rule="evenodd" />
        <path stroke="#ffffff" stroke-width="12.0" stroke-linejoin="round" stroke-linecap="butt"
            d="m720.0009 191.63087l0 0c221.4057 0 400.89044 175.61366 400.89044 392.24414l0 0c0 104.0296 -42.236572 203.7984 -117.41809 277.35846c-75.18152 73.56006 -177.1496 114.88568 -283.47235 114.88568l0 0c-221.40567 0 -400.89044 -175.61371 -400.89044 -392.24414l0 0c0 -216.63046 179.48477 -392.24414 400.89044 -392.24414z"
            fill-rule="evenodd" />
        <path fill="#000000" fill-opacity="0.0"
            d="m719.9989 88.10449l0 0c356.67944 0 645.8252 282.90958 645.8252 631.89624l0 0c0 167.5893 -68.04199 328.31458 -189.15784 446.8181c-121.11572 118.50354 -285.38385 185.07812 -456.66736 185.07812l0 0c-356.67947 0 -645.82526 -282.90955 -645.82526 -631.89624l0 0c0 -348.98666 289.1458 -631.89624 645.82526 -631.89624z"
            fill-rule="evenodd" />
        <path stroke="#ffffff" stroke-width="12.0" stroke-linejoin="round" stroke-linecap="butt"
            d="m719.9989 88.10449l0 0c356.67944 0 645.8252 282.90958 645.8252 631.89624l0 0c0 167.5893 -68.04199 328.31458 -189.15784 446.8181c-121.11572 118.50354 -285.38385 185.07812 -456.66736 185.07812l0 0c-356.67947 0 -645.82526 -282.90955 -645.82526 -631.89624l0 0c0 -348.98666 289.1458 -631.89624 645.82526 -631.89624z"
            fill-rule="evenodd" />
        <path fill="#ffffff"
            d="m720.16974 437.3418l0 0c17.078064 0 30.922485 13.844482 30.922485 30.922485l0 653.5416c0 8.201172 -3.2578735 16.066406 -9.056946 21.865479c-5.7991333 5.7991943 -13.664368 9.057007 -21.86554 9.057007l0 0l0 0c-17.078003 0 -30.922485 -13.844482 -30.922485 -30.922485l0 -653.5416c0 -17.078003 13.844482 -30.922485 30.922485 -30.922485z"
            fill-rule="evenodd" />
        <path stroke="#ffffff" stroke-width="1.0" stroke-linejoin="round" stroke-linecap="butt"
            d="m720.16974 437.3418l0 0c17.078064 0 30.922485 13.844482 30.922485 30.922485l0 653.5416c0 8.201172 -3.2578735 16.066406 -9.056946 21.865479c-5.7991333 5.7991943 -13.664368 9.057007 -21.86554 9.057007l0 0l0 0c-17.078003 0 -30.922485 -13.844482 -30.922485 -30.922485l0 -653.5416c0 -17.078003 13.844482 -30.922485 30.922485 -30.922485z"
            fill-rule="evenodd" />
        <path fill="#ffffff"
            d="m293.16876 733.6922l0 0c0 -30.334595 24.591034 -54.9256 54.92563 -54.9256l744.1481 0c14.567139 0 28.53772 5.786804 38.838257 16.087341c10.300537 10.300537 16.08728 24.271118 16.08728 38.838257l0 61.51825l0 0c0 30.334534 -24.591064 54.9256 -54.925537 54.9256l-744.1481 0l0 0c-30.334595 0 -54.92563 -24.591064 -54.92563 -54.9256z"
            fill-rule="evenodd" />
        <path stroke="#ffffff" stroke-width="1.0" stroke-linejoin="round" stroke-linecap="butt"
            d="m293.16876 733.6922l0 0c0 -30.334595 24.591034 -54.9256 54.92563 -54.9256l744.1481 0c14.567139 0 28.53772 5.786804 38.838257 16.087341c10.300537 10.300537 16.08728 24.271118 16.08728 38.838257l0 61.51825l0 0c0 30.334534 -24.591064 54.9256 -54.925537 54.9256l-744.1481 0l0 0c-30.334595 0 -54.92563 -24.591064 -54.92563 -54.9256z"
            fill-rule="evenodd" />
        <path fill="#ffffff"
            d="m504.74365 1112.3732l0 0c0 -20.08374 16.281128 -36.36487 36.36493 -36.36487l358.11963 0c9.644531 0 18.894104 3.8312988 25.713867 10.651001c6.819702 6.819702 10.651001 16.069336 10.651001 25.713867l0 40.729736l0 0c0 20.08374 -16.281128 36.36487 -36.36487 36.36487l-358.11963 0c-20.083801 0 -36.36493 -16.281128 -36.36493 -36.36487z"
            fill-rule="evenodd" />
        <path stroke="#ffffff" stroke-width="1.0" stroke-linejoin="round" stroke-linecap="butt"
            d="m504.74365 1112.3732l0 0c0 -20.08374 16.281128 -36.36487 36.36493 -36.36487l358.11963 0c9.644531 0 18.894104 3.8312988 25.713867 10.651001c6.819702 6.819702 10.651001 16.069336 10.651001 25.713867l0 40.729736l0 0c0 20.08374 -16.281128 36.36487 -36.36487 36.36487l-358.11963 0c-20.083801 0 -36.36493 -16.281128 -36.36493 -36.36487z"
            fill-rule="evenodd" />
        <path fill="#ffffff"
            d="m720.1684 437.3418l0 0c35.378784 0 64.05902 28.680206 64.05902 64.05902l0 260.9068l0 0c0 16.989502 -6.7490845 33.283142 -18.762451 45.29657c-12.013428 12.013367 -28.307068 18.762451 -45.29657 18.762451l0 0l0 0c-35.378845 0 -64.05902 -28.680237 -64.05902 -64.05902l0 -260.9068c0 -35.378815 28.680176 -64.05902 64.05902 -64.05902z"
            fill-rule="evenodd" />
        <path stroke="#ffffff" stroke-width="1.0" stroke-linejoin="round" stroke-linecap="butt"
            d="m720.1684 437.3418l0 0c35.378784 0 64.05902 28.680206 64.05902 64.05902l0 260.9068l0 0c0 16.989502 -6.7490845 33.283142 -18.762451 45.29657c-12.013428 12.013367 -28.307068 18.762451 -45.29657 18.762451l0 0l0 0c-35.378845 0 -64.05902 -28.680237 -64.05902 -64.05902l0 -260.9068c0 -35.378815 28.680176 -64.05902 64.05902 -64.05902z"
            fill-rule="evenodd" />
    </g>
</svg>